<?xml version="1.0" standalone="no"?><!DOCTYPE svg PUBLIC "-//W3C//DTD SVG 1.1//EN" "http://www.w3.org/Graphics/SVG/1.1/DTD/svg11.dtd"><svg t="1629443361183" class="icon" viewBox="0 0 1024 1024" version="1.1" xmlns="http://www.w3.org/2000/svg" p-id="10669" xmlns:xlink="http://www.w3.org/1999/xlink" width="32" height="32"><defs><style type="text/css"></style></defs><path d="M384 350.848c0 0.192-0.128 0.384-0.128 0.64 0 0.192 0.128 0.384 0.128 0.576 0 8.256-3.456 15.616-8.768 21.248-0.32 0.32-0.448 0.768-0.704 1.024-1.024 1.024-2.432 1.664-3.584 2.56-5.44 4.16-11.776 7.104-19.008 7.104-0.192 0-0.32-0.064-0.512-0.064s-0.384 0.064-0.576 0.064H97.28C78.72 384 64 369.664 64 352c-0.128-17.6 14.848-32 33.152-32h177.6L73.984 119.36c-12.992-13.056-13.312-33.728-0.768-46.144 12.352-12.608 33.152-12.16 46.08 0.832L320 274.752V97.216C319.936 78.784 334.4 64 352 64c17.6-0.128 32 14.848 32 33.152v253.696zM862.848 320h-177.6l200.768-200.704c12.992-13.056 13.312-33.664 0.832-46.144-12.352-12.608-33.152-12.16-46.08 0.832L640.064 274.688V97.216C640.064 78.784 625.6 64 608 64c-17.6-0.128-32 14.848-32 33.152v253.696c0 0.192 0.128 0.384 0.128 0.64 0 0.192-0.128 0.384-0.128 0.576 0 8.256 3.456 15.616 8.768 21.248 0.32 0.32 0.448 0.768 0.768 1.024 1.024 1.024 2.432 1.664 3.648 2.56 5.312 4.16 11.648 7.104 18.88 7.104 0.192 0 0.32-0.064 0.512-0.064s0.384 0.064 0.576 0.064h253.632C881.28 384 896 369.664 896 352c0.128-17.6-14.848-32-33.152-32zM384 608c0-8.256-3.456-15.552-8.768-21.248-0.32-0.32-0.448-0.768-0.704-1.088-1.088-0.96-2.432-1.6-3.584-2.496-5.376-4.16-11.776-7.168-19.008-7.168-0.192 0-0.32 0.128-0.512 0.128s-0.384-0.128-0.576-0.128H97.28C78.72 576 64 590.4 64 608c-0.128 17.6 14.848 32 33.152 32h177.6L73.984 840.768c-12.992 12.992-13.312 33.6-0.832 46.144 12.352 12.608 33.152 12.096 46.08-0.896l200.704-200.704v177.536c0 18.368 14.464 33.28 32.064 33.152 17.6 0.256 32-14.72 32-33.152V609.28c0-0.256-0.128-0.448-0.128-0.64 0-0.256 0.128-0.448 0.128-0.64z m301.248 32h177.6c18.24 0 33.28-14.4 33.152-32 0-17.6-14.72-32-33.28-32H609.152c-0.192 0-0.384 0.128-0.576 0.128s-0.32-0.128-0.512-0.128c-7.232 0-13.632 3.008-19.008 7.168-1.152 0.896-2.496 1.536-3.584 2.496-0.256 0.32-0.384 0.768-0.704 1.088C579.456 592.448 576 599.744 576 608c0 0.192 0.128 0.384 0.128 0.64 0 0.192-0.128 0.384-0.128 0.64v253.632c0 18.368 14.4 33.344 32 33.088 17.6 0.128 32.064-14.72 32.064-33.152V685.312l200.704 200.704c12.928 12.992 33.664 13.504 46.08 0.896 12.48-12.48 12.16-33.152-0.832-46.144L685.248 640z" p-id="10670"></path></svg>