<?xml version="1.0" standalone="no"?><!DOCTYPE svg PUBLIC "-//W3C//DTD SVG 1.1//EN" "http://www.w3.org/Graphics/SVG/1.1/DTD/svg11.dtd"><svg t="1629528097444" class="icon" viewBox="0 0 1126 1024" version="1.1" xmlns="http://www.w3.org/2000/svg" p-id="5850" xmlns:xlink="http://www.w3.org/1999/xlink" width="219.921875" height="200"><defs><style type="text/css"></style></defs><path d="M950.6428833 483.37512207C944.78442383 471.73236084 803.29150391 194.60498047 547.37322998 194.60498047c-21.35742188 0-42.64068604 1.92810059-63.9981079 5.78430176-15.4989624 3.93035888-27.14172364 17.5012207-23.21136476 33.0001831 3.85620117 15.4989624 17.42706299 27.14172364 32.92602539 23.21136475 17.42706299-3.85620117 34.85412598-3.85620117 52.35534669-3.85620117 189.99206543 0 314.05792237 189.99206543 345.05584715 242.34741211a562.85705567 562.85705567 0 0 1-58.13964842 83.35327148 30.03387451 30.03387451 0 0 0 3.85620117 40.78674317 32.77770997 32.77770997 0 0 0 19.42932128 5.78430175 35.74401856 35.74401856 0 0 0 23.21136475-9.71466064c46.57104492-56.21154786 71.78466797-104.71069335 71.78466797-106.63879395a20.39337158 20.39337158 0 0 0 0-25.21362304zM277.88409424 149.96203613a28.17993164 28.17993164 0 0 0-40.71258546 1e-8 28.17993164 28.17993164 0 0 0 0 40.71258544L320.52478027 273.95373535C208.10168457 357.38116455 147.95977783 475.66271972 144.17773437 481.44702148a33.07434083 33.07434083 0 0 0 1e-8 27.14172364c5.85845948 11.64276123 147.3513794 286.99035645 403.26965332 286.99035644 75.64086914 0 149.27947998-25.21362305 219.06188964-73.71276856l87.28363037 87.20947267a29.14398193 29.14398193 0 0 0 21.28326416 7.78656005 28.17993164 28.17993164 0 0 0 21.35742188-48.49914551L277.88409424 149.88787842z m220.98999023 304.34326173l94.99603272 94.99603271a67.70599365 67.70599365 0 0 1-46.49688721 19.35516357 68.67004395 68.67004395 0 0 1-67.85430908-67.78015137c0-17.5012207 7.78656006-34.92828369 19.35516357-46.57104491z m48.49914551 283.05999755c-189.99206543 0-314.05792237-189.99206543-345.13000488-242.34741211 19.42932129-32.92602539 73.71276855-118.28155518 158.99414063-178.3493042l94.99603271 94.921875c-23.21136474 23.35968018-34.85412598 54.35760498-34.85412598 87.28363038 0 69.78240967 56.21154786 126.06811523 125.99395752 126.06811523 32.92602539 0 63.99810791-13.57086182 87.20947265-34.85412598l89.21173096 89.13757325c-56.21154786 38.71032715-116.35345459 58.13964844-176.49536132 58.13964843z" p-id="5851"></path></svg>