<?xml version="1.0" standalone="no"?><!DOCTYPE svg PUBLIC "-//W3C//DTD SVG 1.1//EN" "http://www.w3.org/Graphics/SVG/1.1/DTD/svg11.dtd"><svg t="1629443210880" class="icon" viewBox="0 0 1024 1024" version="1.1" xmlns="http://www.w3.org/2000/svg" p-id="8584" xmlns:xlink="http://www.w3.org/1999/xlink" width="32" height="32"><defs><style type="text/css"></style></defs><path d="M972.8 998.4h-256a25.6 25.6 0 1 1 0-51.2h230.4V716.8a25.6 25.6 0 1 1 51.2 0v256a25.6 25.6 0 0 1-25.6 25.6z m-665.6 0h-256a25.6 25.6 0 0 1-25.6-25.6v-256a25.6 25.6 0 1 1 51.2 0v230.4h230.4a25.6 25.6 0 1 1 0 51.2z m665.6-665.6a25.6 25.6 0 0 1-25.6-25.6V76.8H716.8a25.6 25.6 0 1 1 0-51.2h256a25.6 25.6 0 0 1 25.6 25.6v256a25.6 25.6 0 0 1-25.6 25.6z m-921.6 0a25.6 25.6 0 0 1-25.6-25.6v-256a25.6 25.6 0 0 1 25.6-25.6h256a25.6 25.6 0 1 1 0 51.2H76.8v230.4a25.6 25.6 0 0 1-25.6 25.6z m232.192-23.808a25.6 25.6 0 0 1-18.112-7.488L33.088 69.312a25.6 25.6 0 0 1 36.224-36.224L301.504 265.28a25.6 25.6 0 0 1-18.112 43.712z m457.216 0a25.6 25.6 0 0 1-18.112-43.712L954.688 33.088a25.6 25.6 0 0 1 36.224 36.224L758.72 301.504a25.472 25.472 0 0 1-18.112 7.488zM972.8 998.4a25.6 25.6 0 0 1-18.112-7.488L722.496 758.72a25.6 25.6 0 0 1 36.224-36.224l232.192 232.192A25.6 25.6 0 0 1 972.8 998.4z m-921.6 0a25.6 25.6 0 0 1-18.112-43.712L265.28 722.496a25.6 25.6 0 0 1 36.224 36.224L69.312 990.912A25.472 25.472 0 0 1 51.2 998.4z" p-id="8585"></path></svg>