<svg t="1630313668142" class="icon" viewBox="0 0 1024 1024" version="1.1" xmlns="http://www.w3.org/2000/svg" p-id="7114" xmlns:xlink="http://www.w3.org/1999/xlink" width="32" height="32">
<defs><style type="text/css"></style></defs>
<path d="M335.334086 455.847777l-117.281942-43.342978a31.869984 31.869984 0 0 0-22.30999 59.91597l117.282943 43.979979a31.869984 31.869984 0 0 0 22.309989-59.914971z" p-id="7115"></path><path d="M1014.807754 193.236906h-3.824998a30.594985 30.594985 0 0 0-5.099997-5.735998h-4.459998L520.817996 2.015999a31.869984 31.869984 0 0 0-22.309989 0L21.09524 182.401911h-4.461998a30.594985 30.594985 0 0 0-7.648996 10.834995H5.160247a31.232985 31.232985 0 0 0-5.099997 19.12299v594.69771a31.869984 31.869984 0 0 0 20.39699 29.957985l478.053767 184.84691a31.869984 31.869984 0 0 0 22.945988 0L999.509762 838.92759a31.869984 31.869984 0 0 0 20.39699-29.957985V212.359896a31.232985 31.232985 0 0 0-5.099998-19.12299zM509.983001 65.756968L896.887812 212.359896 509.983001 356.412826 123.08019 212.359896zM63.800219 256.976875l414.312798 155.527924v530.95774L63.800219 784.748617z m892.365564 527.134742l-414.312798 159.349922V412.505799l414.312798-155.526924z" p-id="7116"></path>
</svg>