<svg t="1630313714445" class="icon" viewBox="0 0 1024 1024" version="1.1" xmlns="http://www.w3.org/2000/svg" p-id="8588" xmlns:xlink="http://www.w3.org/1999/xlink" width="32" height="32">
<defs><style type="text/css"></style></defs>
<path d="M947.2 907.1616a40.0896 40.0896 0 0 1-40.0384 40.0384h-247.808a40.0896 40.0896 0 0 1-39.9872-40.0384V659.456c0-22.1696 17.92-40.1408 40.0384-40.1408h247.7568c22.016 0 40.0384 17.9712 40.0384 40.1408v247.7056z m-40.0384-364.5952h-247.808a116.8896 116.8896 0 0 0-116.7872 116.8896v247.7056A116.8384 116.8384 0 0 0 659.4048 1024h247.7568A116.8384 116.8384 0 0 0 1024 907.1616V659.456a116.8384 116.8384 0 0 0-116.8384-116.9408z m-502.528 364.544a40.0896 40.0896 0 0 1-40.0384 40.0896H116.8896a40.0896 40.0896 0 0 1-40.0896-40.0384V659.456c0-22.1696 17.92-40.1408 40.0896-40.1408H364.544c22.016 0 40.0384 17.9712 40.0384 40.1408v247.7056z m-40.0384-364.544H116.8896A116.8896 116.8896 0 0 0 0 659.456v247.7056A116.8896 116.8896 0 0 0 116.8896 1024H364.544a116.8384 116.8384 0 0 0 116.8384-116.8384V659.456a116.8896 116.8896 0 0 0-116.8384-116.9408z m254.7712-425.6768c0-22.1184 17.92-40.0384 40.0384-40.0384h247.7568c22.016 0 40.0384 17.92 40.0384 40.0384V364.544a40.0896 40.0896 0 0 1-40.0384 40.0384h-247.808a40.0896 40.0896 0 0 1-39.9872-40.0384V116.9408z m40.0384 364.544h247.7568A116.8384 116.8384 0 0 0 1024 364.544V116.9408A116.8384 116.8384 0 0 0 907.1616 0h-247.808a116.8384 116.8384 0 0 0-116.7872 116.7872V364.544a116.8384 116.8384 0 0 0 116.8384 116.8384z m-582.656-364.544c0-22.1184 18.0224-40.0384 40.0896-40.0384H364.544c22.016 0 40.0384 17.92 40.0384 40.0384V364.544a40.0896 40.0896 0 0 1-40.0384 40.0384H116.736A40.0896 40.0896 0 0 1 76.8 364.544V116.9408z m40.0896 364.544H364.544A116.8384 116.8384 0 0 0 481.4336 364.544V116.9408A116.8384 116.8384 0 0 0 364.544 0H116.736A116.8384 116.8384 0 0 0 0 116.8384V364.544a116.8384 116.8384 0 0 0 116.8384 116.8384z" p-id="8589"></path>
</svg>