<svg t="1629526487242" class="icon" viewBox="0 0 1024 1024" version="1.1" xmlns="http://www.w3.org/2000/svg" p-id="4366" xmlns:xlink="http://www.w3.org/1999/xlink" width="200" height="200"><defs><style type="text/css"></style></defs><path d="M216.1664 438.852267v-146.432C216.1664 130.9696 348.5696 0 511.863467 0c163.293867 0 295.697067 130.935467 295.697066 292.4544v146.432h75.025067c40.413867 0 73.147733 32.733867 73.147733 73.1136v438.852267C955.733333 991.266133 922.965333 1024 882.5856 1024H141.4144A73.147733 73.147733 0 0 1 68.266667 950.852267V512c0-40.379733 32.768-73.147733 73.147733-73.147733h74.752z m73.966933 0h443.460267v-146.432c0-121.105067-99.259733-219.272533-221.730133-219.272534-122.4704 0-221.730133 98.167467-221.730134 219.306667v146.432z m221.047467 146.295466c-40.379733 0-73.147733 32.768-73.147733 73.147734v146.261333c0 40.413867 32.768 73.147733 73.147733 73.147733h1.6384c40.379733 0 73.147733-32.768 73.147733-73.147733v-146.261333c0-40.413867-32.768-73.147733-73.147733-73.147734h-1.6384z" p-id="4367"></path></svg> 