<?xml version="1.0" standalone="no"?>
<!DOCTYPE svg PUBLIC "-//W3C//DTD SVG 1.1//EN" "http://www.w3.org/Graphics/SVG/1.1/DTD/svg11.dtd">
<svg t="1629270642121" class="icon" viewBox="0 0 1024 1024" version="1.1" xmlns="http://www.w3.org/2000/svg" p-id="1226" xmlns:xlink="http://www.w3.org/1999/xlink" width="32" height="32">
  <defs>
    <style type="text/css"></style>
  </defs>
  <path d="M309.312 463.103c-21.504-44.992-32.896-94.592-32.896-145.856 0-78.656 27.2-150.848 72.256-208.384-8.384-1.217-16.896-2.048-25.536-2.112-0.576 0-1.152-0.064-1.728-0.064-109.888 0-198.912 89.088-198.912 198.976 0 54.784 22.144 104.512 58.048 140.416C73.664 485.311 0 567.807 0 663.103c0 37.376 47.616 79.873 120.576 109.632v-0.512c0-121.984 71.488-235.776 188.736-309.12z" p-id="1227"></path>
  <path d="M794.304 495.936c45.632-45.76 73.856-108.928 73.856-178.688 0-139.072-112.192-251.904-251.008-253.12-0.704-0.064-1.408-0.128-2.176-0.128h-0.064c-139.84 0-253.184 113.344-253.184 253.247 0 69.76 28.224 132.928 73.92 178.752-136 49.92-229.696 154.88-229.696 276.288 0 83.712 187.52 187.776 409.024 187.776C841.6 959.999 1024 858.303 1024 772.223c0-121.408-93.696-226.304-229.696-276.288z" p-id="1228"></path>
</svg>